<?xml version="1.0" standalone="no"?>
<!DOCTYPE svg PUBLIC "-//W3C//DTD SVG 20010904//EN"
 "http://www.w3.org/TR/2001/REC-SVG-20010904/DTD/svg10.dtd">
<svg version="1.0" xmlns="http://www.w3.org/2000/svg"
 width="500.000000pt" height="500.000000pt" viewBox="0 0 500.000000 500.000000"
 preserveAspectRatio="xMidYMid meet">
<metadata>
Created by potrace 1.14, written by Peter Selinger 2001-2017
</metadata>
<g transform="translate(0.000000,500.000000) scale(0.100000,-0.100000)"
fill="#000000" stroke="none">
<path d="M2334 4990 c-492 -35 -947 -205 -1339 -499 -122 -93 -331 -294 -430
-416 -162 -200 -322 -480 -410 -719 -114 -309 -167 -678 -145 -1007 34 -507
199 -955 499 -1354 93 -122 294 -331 416 -430 200 -162 480 -322 719 -410 309
-114 678 -167 1007 -145 342 23 631 98 924 239 260 125 451 259 658 461 221
215 372 421 502 685 156 317 233 605 255 954 37 590 -139 1177 -499 1656 -95
126 -297 334 -422 435 -490 394 -1119 594 -1735 550z m357 -1487 c100 -175
273 -475 384 -668 336 -584 459 -795 465 -794 5 0 272 322 297 358 11 15 -4
46 -106 221 -66 112 -123 205 -128 207 -4 1 -52 -52 -106 -118 -54 -65 -102
-119 -105 -119 -4 0 -29 39 -57 87 -27 48 -67 108 -87 134 l-37 47 77 95 c156
194 357 436 362 436 9 0 582 -999 578 -1009 -1 -5 -119 -151 -261 -323 l-258
-314 -472 -6 c-260 -4 -801 -7 -1203 -7 l-730 0 -265 320 c-145 176 -265 325
-267 330 -4 10 549 972 573 998 13 15 92 -75 374 -425 l121 -151 -38 -63 c-21
-35 -58 -99 -83 -141 -40 -71 -59 -93 -59 -69 0 4 21 39 46 77 87 129 115 204
77 204 -22 -1 -69 -62 -121 -158 l-39 -73 -37 38 c-21 21 -70 77 -109 125 -40
48 -75 84 -79 80 -4 -4 -59 -97 -123 -207 -74 -127 -114 -204 -108 -212 43
-61 300 -360 305 -355 7 8 452 777 804 1389 120 210 222 382 225 383 4 0 89
-143 190 -317z m1004 -2014 c3 -4 -28 -77 -69 -163 l-75 -156 -1051 2 -1051 3
-75 158 c-41 88 -74 161 -74 163 0 7 2388 0 2395 -7z"/>
<path d="M2482 3138 c-11 -18 -147 -253 -302 -523 -155 -269 -291 -505 -302
-522 l-20 -33 647 0 c517 0 645 3 637 13 -5 6 -146 248 -312 537 -167 289
-309 533 -315 543 -12 17 -14 16 -33 -15z"/>
</g>
</svg>
